PathFileType	4	(X/Y/Z)	D:\Research_projects\MuscleProsody\BulkSports2Dtrack\RetrackedSports2D\p1_sample60_cam2\p1_sample60_cam2_Sports2D\p1_sample60_cam2_Sports2D_px_person00.trc
DataRate	CameraRate	NumFrames	NumMarkers	Units	OrigDataRate	OrigDataStartFrame	OrigNumFrames
60	60	7	22	m	60	97	780
Frame#	Time	Hip			RHip			RKnee			RAnkle			RBigToe			RSmallToe			RHeel			LHip			LKnee			LAnkle			LBigToe			LSmallToe			LHeel			Neck			Head			Nose			RShoulder			RElbow			RWrist			LShoulder			LElbow			LWrist		
		X1	Y1	Z1	X2	Y2	Z2	X3	Y3	Z3	X4	Y4	Z4	X5	Y5	Z5	X6	Y6	Z6	X7	Y7	Z7	X8	Y8	Z8	X9	Y9	Z9	X10	Y10	Z10	X11	Y11	Z11	X12	Y12	Z12	X13	Y13	Z13	X14	Y14	Z14	X15	Y15	Z15	X16	Y16	Z16	X17	Y17	Z17	X18	Y18	Z18	X19	Y19	Z19	X20	Y20	Z20	X21	Y21	Z21	X22	Y22	Z22
97	1.6166666666666667	247.19465353341704	515.9843105751339	0.0	220.04238067767918	516.3544169692343	0.0	218.7296928157923	629.0652940025619	0.0	223.1032433504302	727.276358117566	0.0	224.6459823755281	767.3882441312595	0.0	209.17665541796399	759.5711061570807	0.0	227.1238089426227	734.4638327396112	0.0	273.78007432850893	518.2811526093698	0.0	268.4842036150555	631.7501912213885	0.0	269.5835435657218	727.090278084713	0.0	260.9675445531449	765.1745365695992	0.0	278.384761020107	760.8646899476502	0.0	268.3436375963801	732.0434597029131	0.0	254.91997375307554	323.49025390748426	0.0	255.74481867111066	243.59831348003914	0.0	244.17513708231326	289.589598882893	0.0	202.22678091503963	360.1999058111293	0.0	168.18930505003823	426.0188759657686	0.0	171.6897931055615	441.5108369929445	0.0	308.93045843623946	360.7316754441155	0.0	320.31401104950714	445.1859452422353	0.0	326.30067417058063	517.9296969155513	0.0
98	1.6333333333333333	247.2100448106033	516.0614330626095	0.0	220.00402714675505	516.5254126119439	0.0	218.74709726012748	629.3641151391881	0.0	223.1121731102332	727.5313507656201	0.0	224.5917624830155	767.4079662391117	0.0	209.1911337744262	759.6105307607932	0.0	227.1440331391014	734.5300668767454	0.0	273.813884910413	518.435165196999	0.0	268.55409130630903	632.0171084345243	0.0	269.51791907153927	727.4116002143453	0.0	261.043092546884	765.1458466015811	0.0	278.4067377080033	760.8841092830758	0.0	268.1852167320377	732.2760962916982	0.0	254.8240630777946	323.6145245336615	0.0	255.8174310873886	243.51413621185108	0.0	244.07240942895908	289.6748349509235	0.0	202.0890128340901	360.0481974633236	0.0	166.32226981972536	425.26247559934205	0.0	171.70924942338254	441.77117114850125	0.0	308.83170245147613	360.79844894185146	0.0	320.95562885835324	444.2892671818234	0.0	326.9863195766841	514.8756292259401	0.0
99	1.65	247.2001368506355	516.0863363891052	0.0	219.92312551865393	516.6272810904951	0.0	218.7323833999915	629.7071653368862	0.0	223.1059265069245	727.8462588526489	0.0	224.53502688463232	767.4486132134182	0.0	209.21767519097625	759.6976315115218	0.0	227.1850289038265	734.6317817471136	0.0	273.82920223159823	518.4999686738317	0.0	268.61277937969305	632.3183434398046	0.0	269.44729328695325	727.7930606748946	0.0	261.1279793467902	765.1348005431447	0.0	278.42418592162926	760.9337933009652	0.0	268.0207309756763	732.5502096043354	0.0	254.73595515593559	323.8033763037009	0.0	255.88630500522464	243.4319523995512	0.0	243.97335635889996	289.81411347314327	0.0	201.9671556198874	359.85273569144084	0.0	164.40808369213917	424.332498592737	0.0	171.42133553441107	441.00917620123715	0.0	308.69727170182733	360.80560164082954	0.0	321.8013331445214	443.1284005932815	0.0	328.2605793924418	510.91821075391067	0.0
100	1.6666666666666667	247.16631751122372	516.0424713147171	0.0	219.8154947845076	516.6602699164484	0.0	218.6757620461187	630.1017869725707	0.0	223.08289888516714	728.2120222033403	0.0	224.48572919937828	767.4904415147321	0.0	209.25666793719049	759.8256886325246	0.0	227.24488290009043	734.7621331917527	0.0	273.81050192875966	518.474552753329	0.0	268.65493316623025	632.6679399946403	0.0	269.3756970116753	728.2257244949691	0.0	261.21647756739804	765.1242876242517	0.0	278.43152381276286	760.998127744845	0.0	267.8635973858854	732.8541514817723	0.0	254.66345803460035	324.053340226927	0.0	255.94575555343758	243.35906713766647	0.0	243.88023710358877	290.00371373874475	0.0	201.87369304687527	359.6193359407184	0.0	162.55853589348143	423.135290871399	0.0	170.6986981634648	439.3566346636203	0.0	308.5422539641827	360.746304231851	0.0	322.8852711718474	441.68548061797856	0.0	330.26474574572035	506.01099034906053	0.0
101	1.6833333333333333	247.11397839119755	515.9191858563395	0.0	219.6989806670765	516.6284279443679	0.0	218.5708212264567	630.550827805167	0.0	223.04173046956518	728.6120560998406	0.0	224.4542472802717	767.516311407278	0.0	209.30772785885173	759.9875057137973	0.0	227.31923186326395	734.9081232938051	0.0	273.7463796097826	518.3634732981263	0.0	268.6782710014444	633.0730365938609	0.0	269.30730103826954	728.6976798385207	0.0	261.302469242614	765.1003696813177	0.0	278.425693399102	761.0636540109426	0.0	267.7270029061227	733.1745733047367	0.0	254.61163813320158	324.3597248842165	0.0	255.9861582609443	243.30408963929497	0.0	243.78950614541066	290.23764836814837	0.0	201.81594338655273	359.3525779892621	0.0	160.86589766084697	421.6118254117227	0.0	169.42551761594973	436.97789445077416	0.0	308.3811352222303	360.6126244673019	0.0	324.2439299970158	439.9490402880489	0.0	333.1248923430316	500.14498440003314	0.0
102	1.7	247.05044403943884	515.7153745580983	0.0	219.58832431215612	516.5397290546248	0.0	218.41637014698873	631.0558597919381	0.0	222.98125579919076	729.0291625428096	0.0	224.45017201373068	767.5160775929509	0.0	209.3724608051031	760.1774867918215	0.0	227.39995804692938	735.0538840050685	0.0	273.63027530479883	518.1771315251273	0.0	268.6835966060596	633.5344088424225	0.0	269.2459902283947	729.198242686121	0.0	261.3814381827277	765.0565040965154	0.0	278.40861072938867	761.1222878916022	0.0	267.61892598646835	733.499751238222	0.0	254.58006073640792	324.71521325280855	0.0	255.9924159627763	243.27262152879942	0.0	243.6936878875784	290.5095465370026	0.0	201.7951815956053	359.05942248107226	0.0	159.40671215637533	419.7459896990738	0.0	167.51434535476398	434.05726766805174	0.0	308.22527486602263	360.3972413068268	0.0	325.91543408144213	437.91742372473493	0.0	336.9336587993327	493.3525011779836	0.0
103	1.7166666666666666	246.98204387527574	515.4374866111064	0.0	219.49228851080338	516.4031172357943	0.0	218.21888848201604	631.6132464923278	0.0	222.9013007100117	729.4489546544588	0.0	224.4776248069399	767.4854634316581	0.0	209.45036314413096	760.3902357944575	0.0	227.47608635240925	735.1861544403591	0.0	273.4625107501217	517.9294355816138	0.0	268.6757707996935	634.0428172138712	0.0	269.19546653539965	729.7166021438939	0.0	261.45286521062	764.9921639210495	0.0	278.3873633051824	761.1698213795052	0.0	267.54083514150653	733.8221257631889	0.0	254.5612059309731	325.10913854017986	0.0	255.94379082165966	243.26538673971692	0.0	243.58149016737218	290.8114887389549	0.0	201.80698502286683	358.7531791309292	0.0	158.23785571499013	417.5802847175426	0.0	164.9201312199193	430.78939282976364	0.0	308.0814113841566	360.0943816131265	0.0	327.93690933271745	435.5999881583802	0.0	341.7334714457245	485.71334937031475	0.0
